<svg width="56" height="56" viewBox="0 0 56 56" fill="none" xmlns="http://www.w3.org/2000/svg">
<circle cx="28" cy="28" r="28" fill="#3B3939"/>
<path d="M27 20.1213H20C19.4696 20.1213 18.9609 20.332 18.5858 20.7071C18.2107 21.0822 18 21.5909 18 22.1213V36.1213C18 36.6518 18.2107 37.1605 18.5858 37.5355C18.9609 37.9106 19.4696 38.1213 20 38.1213H34C34.5304 38.1213 35.0391 37.9106 35.4142 37.5355C35.7893 37.1605 36 36.6518 36 36.1213V29.1213" stroke="white" stroke-width="2" stroke-linecap="round" stroke-linejoin="round"/>
<path d="M34.5 18.6213C34.8978 18.2235 35.4374 18 36 18C36.5626 18 37.1022 18.2235 37.5 18.6213C37.8978 19.0191 38.1213 19.5587 38.1213 20.1213C38.1213 20.6839 37.8978 21.2235 37.5 21.6213L28 31.1213L24 32.1213L25 28.1213L34.5 18.6213Z" stroke="white" stroke-width="2" stroke-linecap="round" stroke-linejoin="round"/>
</svg>
