<svg width="56" height="56" viewBox="0 0 56 56" fill="none" xmlns="http://www.w3.org/2000/svg">
<circle cx="28" cy="28" r="28" fill="#3B3939"/>
<g clip-path="url(#clip0_81_523)">
<path d="M28 31C29.6569 31 31 29.6569 31 28C31 26.3431 29.6569 25 28 25C26.3431 25 25 26.3431 25 28C25 29.6569 26.3431 31 28 31Z" stroke="white" stroke-width="2" stroke-linecap="round" stroke-linejoin="round"/>
<path d="M35.4 31C35.2669 31.3016 35.2272 31.6362 35.286 31.9606C35.3448 32.285 35.4995 32.5843 35.73 32.82L35.79 32.88C35.976 33.0657 36.1235 33.2863 36.2241 33.5291C36.3248 33.7719 36.3766 34.0322 36.3766 34.295C36.3766 34.5578 36.3248 34.8181 36.2241 35.0609C36.1235 35.3037 35.976 35.5243 35.79 35.71C35.6043 35.896 35.3837 36.0435 35.1409 36.1441C34.8981 36.2448 34.6378 36.2966 34.375 36.2966C34.1122 36.2966 33.8519 36.2448 33.6091 36.1441C33.3663 36.0435 33.1457 35.896 32.96 35.71L32.9 35.65C32.6643 35.4195 32.365 35.2648 32.0406 35.206C31.7162 35.1472 31.3816 35.1869 31.08 35.32C30.7842 35.4468 30.532 35.6572 30.3543 35.9255C30.1766 36.1938 30.0813 36.5082 30.08 36.83V37C30.08 37.5304 29.8693 38.0391 29.4942 38.4142C29.1191 38.7893 28.6104 39 28.08 39C27.5496 39 27.0409 38.7893 26.6658 38.4142C26.2907 38.0391 26.08 37.5304 26.08 37V36.91C26.0723 36.579 25.9651 36.258 25.7725 35.9887C25.5799 35.7194 25.3107 35.5143 25 35.4C24.6984 35.2669 24.3638 35.2272 24.0394 35.286C23.715 35.3448 23.4157 35.4995 23.18 35.73L23.12 35.79C22.9343 35.976 22.7137 36.1235 22.4709 36.2241C22.2281 36.3248 21.9678 36.3766 21.705 36.3766C21.4422 36.3766 21.1819 36.3248 20.9391 36.2241C20.6963 36.1235 20.4757 35.976 20.29 35.79C20.104 35.6043 19.9565 35.3837 19.8559 35.1409C19.7552 34.8981 19.7034 34.6378 19.7034 34.375C19.7034 34.1122 19.7552 33.8519 19.8559 33.6091C19.9565 33.3663 20.104 33.1457 20.29 32.96L20.35 32.9C20.5805 32.6643 20.7352 32.365 20.794 32.0406C20.8528 31.7162 20.8131 31.3816 20.68 31.08C20.5532 30.7842 20.3428 30.532 20.0745 30.3543C19.8062 30.1766 19.4918 30.0813 19.17 30.08H19C18.4696 30.08 17.9609 29.8693 17.5858 29.4942C17.2107 29.1191 17 28.6104 17 28.08C17 27.5496 17.2107 27.0409 17.5858 26.6658C17.9609 26.2907 18.4696 26.08 19 26.08H19.09C19.421 26.0723 19.742 25.9651 20.0113 25.7725C20.2806 25.5799 20.4857 25.3107 20.6 25C20.7331 24.6984 20.7728 24.3638 20.714 24.0394C20.6552 23.715 20.5005 23.4157 20.27 23.18L20.21 23.12C20.024 22.9343 19.8765 22.7137 19.7759 22.4709C19.6752 22.2281 19.6234 21.9678 19.6234 21.705C19.6234 21.4422 19.6752 21.1819 19.7759 20.9391C19.8765 20.6963 20.024 20.4757 20.21 20.29C20.3957 20.104 20.6163 19.9565 20.8591 19.8559C21.1019 19.7552 21.3622 19.7034 21.625 19.7034C21.8878 19.7034 22.1481 19.7552 22.3909 19.8559C22.6337 19.9565 22.8543 20.104 23.04 20.29L23.1 20.35C23.3357 20.5805 23.635 20.7352 23.9594 20.794C24.2838 20.8528 24.6184 20.8131 24.92 20.68H25C25.2958 20.5532 25.548 20.3428 25.7257 20.0745C25.9034 19.8062 25.9987 19.4918 26 19.17V19C26 18.4696 26.2107 17.9609 26.5858 17.5858C26.9609 17.2107 27.4696 17 28 17C28.5304 17 29.0391 17.2107 29.4142 17.5858C29.7893 17.9609 30 18.4696 30 19V19.09C30.0013 19.4118 30.0966 19.7262 30.2743 19.9945C30.452 20.2628 30.7042 20.4732 31 20.6C31.3016 20.7331 31.6362 20.7728 31.9606 20.714C32.285 20.6552 32.5843 20.5005 32.82 20.27L32.88 20.21C33.0657 20.024 33.2863 19.8765 33.5291 19.7759C33.7719 19.6752 34.0322 19.6234 34.295 19.6234C34.5578 19.6234 34.8181 19.6752 35.0609 19.7759C35.3037 19.8765 35.5243 20.024 35.71 20.21C35.896 20.3957 36.0435 20.6163 36.1441 20.8591C36.2448 21.1019 36.2966 21.3622 36.2966 21.625C36.2966 21.8878 36.2448 22.1481 36.1441 22.3909C36.0435 22.6337 35.896 22.8543 35.71 23.04L35.65 23.1C35.4195 23.3357 35.2648 23.635 35.206 23.9594C35.1472 24.2838 35.1869 24.6184 35.32 24.92V25C35.4468 25.2958 35.6572 25.548 35.9255 25.7257C36.1938 25.9034 36.5082 25.9987 36.83 26H37C37.5304 26 38.0391 26.2107 38.4142 26.5858C38.7893 26.9609 39 27.4696 39 28C39 28.5304 38.7893 29.0391 38.4142 29.4142C38.0391 29.7893 37.5304 30 37 30H36.91C36.5882 30.0013 36.2738 30.0966 36.0055 30.2743C35.7372 30.452 35.5268 30.7042 35.4 31Z" stroke="white" stroke-width="2" stroke-linecap="round" stroke-linejoin="round"/>
</g>
<defs>
<clipPath id="clip0_81_523">
<rect width="24" height="24" fill="white" transform="translate(16 16)"/>
</clipPath>
</defs>
</svg>
